<svg width="375" height="163" viewBox="0 0 375 163" fill="none" xmlns="http://www.w3.org/2000/svg">
<g clip-path="url(#clip0_334_1541)">
<path d="M32.0418 -27.0836C85.7983 -168.54 151.85 -121.746 222.426 23.8169C293.003 169.38 339.419 16 385.419 -22.5L374.919 -235L24.4189 -260C24.4189 -260 -21.7146 114.373 32.0418 -27.0836Z" fill="#CF5260"/>
<path d="M-163.094 84.4719C-107.057 -46.6378 -13.8483 -8.5 40.2829 73.5C94.414 155.5 130.872 84.4719 220 -9.60405V-201H-163.095C-163.095 -201 -219.132 215.582 -163.094 84.4719Z" fill="#F79BA5" fill-opacity="0.6"/>
<path d="M-5.50009 97C50.5374 -34.1098 161.152 44.5 215.283 126.5C269.414 208.5 305.871 137.472 395 43.396V-148H11.905C11.905 -148 -61.5376 228.11 -5.50009 97Z" fill="#F79BA5" fill-opacity="0.6"/>
<path d="M-103.958 -23.0836C-50.2016 -164.54 15.85 -117.746 86.4263 27.8169C157.003 173.38 203.419 20 249.419 -18.5L238.919 -231L-111.581 -256C-111.581 -256 -157.715 118.373 -103.958 -23.0836Z" fill="#CF5260"/>
</g>
<defs>
<clipPath id="clip0_334_1541">
<rect width="375" height="163" fill="white"/>
</clipPath>
</defs>
</svg>
